# xmcd
#
# Track frame offsets: 
#        150
#        2472
#        16555
#        31501
#        46022
#        62974
#        77185
#        90220
#
# Disc length: 1262 seconds
#
# Revision: 0
# Processed by: cddbd v1.5.1PL0 Copyright (c) Steve Scherf et al.
# Submitted via: ExactAudioCopy v0.95a5
#
DISCID=4004ec08
DTITLE=Terri Clark - It's Better In A Dodge
DYEAR=1900
DGENRE=Country
TTITLE0=Terri Clark Intro
TTITLE1=Better Things To Do
TTITLE2=Is Fort Worth Worth It
TTITLE3=One Of The Guys
TTITLE4=I Just Called To Say Goodbye
TTITLE5=A Little Gasoline
TTITLE6=Hold Your Horses
TTITLE7=Better In A Dodge
EXTD=
EXTT0=
EXTT1=
EXTT2=
EXTT3=
EXTT4=
EXTT5=
EXTT6=
EXTT7=
PLAYORDER=
